/vscmnt/brussel_pixiu_data/_data_brussel/112/vsc11236/PredSimResults/SUBJ10mtu3D/worker5.mot
version=1
nRows=6
nColumns=50
inDegrees=yes
endheader
                time	         pelvis_tilt	         pelvis_list	     pelvis_rotation	           pelvis_tx	           pelvis_ty	           pelvis_tz	       hip_flexion_r	     hip_adduction_r	      hip_rotation_r	        knee_angle_r	       ankle_angle_r	         mtp_angle_r	       hip_flexion_l	     hip_adduction_l	      hip_rotation_l	        knee_angle_l	       ankle_angle_l	         mtp_angle_l	    lumbar_extension	      lumbar_bending	     lumbar_rotation	 ercspn_r/activation	 intobl_r/activation	 extobl_r/activation	    abd_r/activation	    add_r/activation	hamstrings_r/activation	bifemsh_r/activation	glut_max_r/activation	iliopsoas_r/activation	rect_fem_r/activation	  vasti_r/activation	gastroc_r/activation	 soleus_r/activation	tib_ant_r/activation	 ercspn_l/activation	 intobl_l/activation	 extobl_l/activation	    abd_l/activation	    add_l/activation	hamstrings_l/activation	bifemsh_l/activation	glut_max_l/activation	iliopsoas_l/activation	rect_fem_l/activation	  vasti_l/activation	gastroc_l/activation	 soleus_l/activation	tib_ant_l/activation	
          1.11685086	         -3.99036448	         -1.23696010	          8.15576582	          1.35138954	          0.82259756	         -0.01330650	         30.64599839	         -1.69589259	         -7.33719043	         -6.49468911	          2.92734942	          0.26702314	        -16.86614612	         -1.31288158	         -0.71801275	         -5.18268009	          7.90556619	         26.58038138	         -7.06491370	         -0.37763417	         -6.62259511	          0.11434924	          0.18755832	          0.01000002	          0.01000001	          0.12637599	          0.12031191	          0.25741807	          0.02347721	          0.11985259	          0.01000010	          0.01000001	          0.01108493	          0.01000000	          0.28346154	          0.06262389	          0.00999999	          0.01000000	          0.05193672	          0.01000001	          0.01440283	          0.22642287	          0.01051043	          0.33706427	          0.01000008	          0.01000000	          0.31681642	          0.24829518	          0.02357005	
          1.12801937	         -4.03731929	         -1.18510052	          8.23953300	          1.36699266	          0.82113726	         -0.01323463	         30.63308831	         -1.61096166	         -7.09101417	         -8.17489132	          2.64418625	          0.26287907	        -17.01449476	         -1.41139884	         -1.03323740	         -6.75708235	          7.18253242	         28.22999765	         -6.87844555	          0.05168171	         -6.89313549	          0.09640438	          0.15812471	          0.01000003	          0.00999999	          0.15893344	          0.10589630	          0.21768294	          0.06093609	          0.10104407	          0.01000003	          0.01000000	          0.01668828	          0.01186143	          0.31095053	          0.09921315	          0.01000000	          0.01000001	          0.04378626	          0.01000042	          0.01215405	          0.19089023	          0.01186143	          0.28416863	          0.01000006	          0.01000001	          0.28363548	          0.23874351	          0.01987119	
          1.13918788	         -4.07361145	         -1.14495132	          8.27907196	          1.38291003	          0.81988322	         -0.01308107	         30.44316444	         -1.53405729	         -6.78463353	         -9.70961138	          2.22836416	          0.25410426	        -17.05631715	         -1.52880664	         -1.38312186	         -8.55846310	          6.32560964	         29.82419199	         -6.67049773	          0.50177113	         -7.13722473	          0.08988318	          0.13331013	          0.01000001	          0.03724688	          0.13399197	          0.09271697	          0.18352188	          0.09174162	          0.08518717	          0.01000001	          0.00999999	          0.01406938	          0.01000001	          0.40026451	          0.10974827	          0.00999999	          0.01000001	          0.03691486	          0.01000004	          0.01024755	          0.16093374	          0.01000001	          0.23957392	          0.01000006	          0.01000000	          0.23912444	          0.22381760	          0.01675279	
          1.15035639	         -4.10056459	         -1.10227930	          8.26922917	          1.39892996	          0.81896262	         -0.01280147	         30.17271730	         -1.44973251	         -6.55463932	        -11.09131618	          1.70029835	          0.24047605	        -16.91807270	         -1.65217477	         -1.76701049	        -10.68591139	          5.33787866	         31.27913568	         -6.46740155	          0.94838133	         -7.34852295	          0.10413880	          0.11238971	          0.01000001	          0.08858657	          0.17964426	          0.07816692	          0.15472171	          0.10641546	          0.07181871	          0.01000001	          0.01000000	          0.01186147	          0.01000000	          0.45485513	          0.14052201	          0.01000000	          0.01000001	          0.03112180	          0.01000007	          0.01438292	          0.13567833	          0.01000004	          0.20197748	          0.01000008	          0.01000002	          0.20159852	          0.20700889	          0.01412377	
          1.16152490	         -4.11730818	         -1.05734940	          8.21502268	          1.41490691	          0.81847774	         -0.01240563	         29.90684010	         -1.36051780	         -6.39424783	        -12.50887165	          1.27538923	          0.22508081	        -16.54680903	         -1.78553547	         -2.18705512	        -13.20686906	          4.23014942	         32.46337246	         -6.28108469	          1.39007733	         -7.52601106	          0.11112107	          0.09475234	          0.01000001	          0.12672728	          0.23092780	          0.06760792	          0.13044117	          0.12117311	          0.06054816	          0.01000002	          0.01000004	          0.01000005	          0.01000001	          0.46974535	          0.17313065	          0.01000000	          0.01000000	          0.02623784	          0.02808016	          0.01936157	          0.11438627	          0.01000003	          0.17028106	          0.01000005	          0.01000002	          0.16996157	          0.18408502	          0.01190732	
          1.17269341	         -4.12371459	         -1.01034653	          8.12036870	          1.43073906	          0.81851008	         -0.01190898	         29.68044289	         -1.27109022	         -6.28789515	        -14.03002685	          1.06289151	          0.20893988	        -15.90094275	         -1.93297608	         -2.65740618	        -16.16886783	          3.01504361	         33.20380662	         -6.11627446	          1.82476532	         -7.66989757	          0.11094250	          0.07988281	          0.01000001	          0.14965212	          0.26653432	          0.06317895	          0.10997098	          0.12485766	          0.05104631	          0.01000001	          0.03839731	          0.01000001	          0.01000000	          0.46719966	          0.19802095	          0.01000000	          0.01000000	          0.02212032	          0.08931074	          0.01722974	          0.09643558	          0.01000000	          0.14355878	          0.01000002	          0.01000000	          0.14328942	          0.15519648	          0.01003870	
